<svg id="Layer_1" data-name="Layer 1" xmlns="http://www.w3.org/2000/svg" viewBox="0 0 483.21 498.8"><defs><style>.cls-1{fill:#fff;}</style></defs><title>business-design</title><path class="cls-1" d="M179.84,500c-4-2.75-5-6.53-5-11.29.2-22.88.09-45.77.09-68.65v-5.79c-4.88,0-9.38,0-13.87,0-6.68-.08-9.47-2.81-9.49-9.48q-.08-25.08,0-50.15c0-8,2.49-10.47,10.43-10.5h6.25c-1.21-2-2.07-3.4-3-4.81Q148.89,314,132.46,288.72c-4.33-6.67-4.13-8.83,1.22-14.47,19.71-20.74,34.81-44.77,49-69.4,20.4-35.45,37.89-72.35,53.84-110,1.75-4.11,3.75-7.85,8.78-7.8,4.88.05,6.59,4.05,8.37,7.76,15,31.43,29.39,63.19,45.26,94.17,14.88,29,31.94,56.9,54,81.24,10.11,11.16,10,10.71,1.72,23.34-10.39,15.88-20.67,31.83-31,47.75-.43.66-.77,1.36-1.6,2.82,3.25,0,5.92-.11,8.57,0,4.88.25,7.93,3.12,8,8q.17,27,0,54.05c0,4.89-3.1,7.82-8,8s-9.72,0-15.33,0v5.31c0,23.05-.11,46.09.09,69.14,0,4.76-1,8.53-5,11.29Zm73.91-366-.85.32c0,34.9.07,69.79-.1,104.69,0,3.71,1.13,5.25,4.49,6.63A30.53,30.53,0,0,1,275.63,280c-3.1,14.92-15.43,25.14-30.39,25.18-15.16,0-27.62-10.26-30.71-25.39a30.6,30.6,0,0,1,18.59-34.31c3.26-1.31,4.29-2.81,4.28-6.26-.14-33.77-.08-67.53-.09-101.3,0-1.31-.17-2.62-.32-4.66-7.18,14.63-13.77,28.53-20.77,42.23-19,37.18-39.35,73.53-67.2,105-2,2.24-.91,3.63.28,5.46,11.94,18.35,23.79,36.76,35.87,55a7.46,7.46,0,0,0,5.27,2.94q54.8.25,109.57,0a7,7,0,0,0,4.91-2.73c12.15-18.41,24-37,36.2-55.4,1.79-2.71,1-4.11-.72-6.22-6.47-7.9-13.1-15.71-19-24-22.65-31.61-40.73-65.88-57.66-100.78C260.32,147.94,257.06,140.94,253.75,134Zm-63,350.1h108.5V414.53H190.78Zm131.91-85.59V360.1H167.44v38.38Zm-62-124.54a15.57,15.57,0,1,0-15.39,15.61A15.64,15.64,0,0,0,260.67,273.94Z" transform="translate(-3.48 -1.2)"/><path class="cls-1" d="M100.46,125.93c4,0,7.54-.06,11.09,0,5.8.12,8.8,3,8.84,8.65q.14,22.41,0,44.81c0,5.79-3,8.8-8.65,8.83q-22.41.13-44.81,0c-5.79,0-8.79-2.95-8.82-8.66q-.13-22.41,0-44.81c0-6,3-8.75,9.14-8.84,4.39-.06,8.78.18,13.15-.13,1.37-.09,3.47-1.25,3.86-2.39C96.86,86.94,120.3,59.7,154,41.15c.09,0,.1-.26.35-.95h-4.73c-26.79,0-53.58.06-80.36-.07-3.25,0-4.71.86-6,4C57.8,57.92,43.22,65.84,29.15,63.05,13.93,60,3.52,47.69,3.48,32.57,3.43,17.2,13.88,4.71,29.3,1.72,43.35-1,57.79,7,63.45,20.81,64.34,23,64.83,24.7,68,24.7q71.84-.18,143.68-.1a22.27,22.27,0,0,0,2.31-.29c0-4.79-.06-9.46,0-14.12.1-6,2.95-8.9,9-8.93q22.16-.09,44.32,0c6,0,8.81,3,8.94,9.05.05,2.27,0,4.54,0,6.82v7.49h5.35c46.27,0,92.54-.05,138.81.09,3.63,0,5.27-1,6.67-4.42A30.51,30.51,0,0,1,461.49,1.86c14.87,3.12,25.17,15.56,25.2,30.42a31,31,0,0,1-24.57,30.43c-14.72,3.1-29.25-4.26-35-18.11-1.39-3.34-2.91-4.53-6.63-4.5-26.78.19-53.57.1-80.36.1h-3.49c9.91,7.47,20.46,14.43,29.86,22.71,18.13,16,30.82,35.83,38.58,58.71,1.13,3.35,2.61,4.66,6.16,4.38a113.57,113.57,0,0,1,12.65,0c5.16.18,8.15,3.09,8.19,8.29q.16,22.89,0,45.78c0,5.16-3.09,8.15-8.28,8.19q-22.89.15-45.78,0c-5.16,0-8.15-3.09-8.18-8.29q-.17-22.89,0-45.78c0-5.15,3.09-8,8.29-8.19,3.72-.12,7.45,0,11.24,0C379,88,335.73,43.54,276.28,40.72c0,4.46,0,8.9,0,13.35-.07,6.68-2.81,9.48-9.48,9.5q-21.68.06-43.35,0c-6.68,0-9.42-2.81-9.49-9.48,0-4.36,0-8.71,0-13.06C169.18,41.47,117.3,74,100.46,125.93Zm160-78.12V17.1H229.84V47.81ZM104.62,141.86H74.05v30.57h30.57Zm311.76,0H385.64v30.49h30.74ZM50.26,32.35A15.56,15.56,0,1,0,34.87,48,15.64,15.64,0,0,0,50.26,32.35ZM455.67,48A15.56,15.56,0,1,0,440,32.68,15.7,15.7,0,0,0,455.67,48Z" transform="translate(-3.48 -1.2)"/></svg>