<svg id="Layer_1" data-name="Layer 1" xmlns="http://www.w3.org/2000/svg" viewBox="0 0 498.67 500"><defs><style>.cls-1{fill:#fff;}</style></defs><title>interior-design</title><path class="cls-1" d="M33.42,221.32c-4,0-7.61.57-11-.1-10.82-2.16-18.23-8.66-20.87-19.42-2.77-11.3.73-21,9.93-28.2,10-7.89,20.11-15.7,30.35-23.31a9.23,9.23,0,0,0,4.22-8.35C45.92,114.4,46,86.85,46,59.31V53.62c-3.08,0-5.7.09-8.31,0-4.94-.21-8-2.85-8.11-7.77-.21-11.92-.23-23.85,0-35.76.1-5.32,3.54-7.94,9.58-8,19.31,0,38.62,0,57.94,0,12.42,0,24.85,0,37.28,0,7.35,0,10,2.63,10,10,0,10.24,0,20.49,0,30.73,0,8.61-1.81,10.41-10.64,10.79-.65,0-1.29.16-2.6.34V80.7c2.17-1.52,3.65-2.48,5.05-3.56Q180.47,43,224.72,8.85c15-11.6,33.14-11.81,48.35-.3,14.46,10.93,28.79,22,43.18,33.06l43.2,33.11c1.25-1.33,2.5-2.58,3.67-3.89,17.15-19.13,34.24-38.32,51.46-57.39C425.2,1.68,438.31-2.8,453.69,1.75A36.4,36.4,0,0,1,468.12,63.8c-17.24,16-35,31.38-52.54,47l-4.21,3.8c1.46,1.22,2.76,2.38,4.14,3.44q35.69,27.53,71.38,55.05c10.65,8.23,14.63,19.22,11.3,30.52-3.93,13.3-15.14,19.93-31.63,18.35V488c0,10.09-1.94,12-12,12H45.45c-10.08,0-12-2-12-12.05V221.32Zm225.2,213.93c0,8.8,0,17,0,25.18,0,8.36-2.42,10.7-10.9,10.73-9.57,0-19.15,0-28.72,0-10.07,0-12.07-2-12.07-12.12q0-11.73,0-23.46H147.52c0,8.67,0,17,0,25.39,0,7.72-2.5,10.14-10.35,10.18-9.9.05-19.81,0-29.72,0-9.31,0-11.5-2.25-11.5-11.67,0-8,0-16,0-24.24-7.93,0-15.14.06-22.34,0-6.72-.07-9.66-2.81-9.67-9.46q-.11-47.36,0-94.71c0-6.44,2.88-9.09,9.37-9.24,3.78-.09,7.56,0,11.69,0v-6.28q0-30.22,0-60.45c0-20.69,12.63-33.31,33.26-33.32q51.88,0,103.77,0h5.65c.46-1.72.78-3.18,1.25-4.6,3.49-10.65,6.44-21.53,10.68-31.88,5.51-13.46,16.54-22.18,30.54-23.26,11.15-.86,17.5-6.09,23.7-13.77,4.74-5.87,10-11.31,15.06-16.94l15.44-17.2L250.11,57.4c-1.53,1.12-2.75,2-3.93,2.9q-96.48,74-193,148c-3,2.31-4.06,4.66-4.06,8.37q.15,131,.08,262v5.48H450.8V295.33c0-26.2.05-52.39-.09-78.59,0-2.07-.69-5-2.13-6.08-25.59-20.13-51.34-40-77.14-60.06a22.21,22.21,0,0,0-2.16,1.52c-15.68,13.95-31.41,27.85-46.93,42-1.41,1.28-2.19,4-2.13,6,.69,20-11.5,37.24-30.62,43-4.65,1.39-9.34,2.69-14.06,3.84-2.65.65-3.74,1.72-3.71,4.77.19,21.49.12,43,.13,64.48v5.63c3.62,0,6.46,0,9.3,0,7.46.09,10.09,2.64,10.1,9.94q0,46.86,0,93.7c0,7-2.75,9.73-9.75,9.79C274.24,435.3,266.87,435.25,258.62,435.25ZM224.44,237.92a37.22,37.22,0,0,0-3.72-.4q-52.11,0-104.21,0c-10.06,0-15.71,6-15.73,16.17q-.07,31.71,0,63.43c0,1.45.18,2.9.29,4.67,3.74,0,7.08-.06,10.42,0,6.72.14,9.44,2.87,9.52,9.55,0,3.76,0,7.53,0,11.15H234.34c0-3.51,0-6.67,0-9.83.06-8.48,2.38-10.83,10.74-10.88,3.6,0,7.2,0,10.71,0V252.67c-7.71,3-14.76,6.14-22.07,8.45-2.66.84-6.78.78-8.71-.77s-2.77-5.5-2.71-8.36C222.41,247.37,223.64,242.78,224.44,237.92ZM349.05,86.48c-28.68-22-56.75-43.56-84.87-65.08-10.1-7.73-20.33-7.66-30.4.23-36.18,28.33-72.16,56.92-108.51,85C91.84,132.49,58,157.83,24.39,183.41A36,36,0,0,0,19.05,188a10.75,10.75,0,0,0,.15,14.65c3.77,4,9.41,4.53,14.15,1.25,1.65-1.15,3.22-2.42,4.81-3.65L242.66,43.27c6.26-4.8,8.41-4.82,14.63-.07L308.9,82.63c8.51,6.5,17,13,25.87,19.7ZM250,337.74c0,15.69,0,30.79,0,45.88,0,7.4-2.66,10.19-9.9,10.2q-62.45,0-124.89,0c-7,0-9.72-2.75-9.79-9.81-.1-8.89,0-17.79,0-26.69V337.93H80V419H275.45V337.74ZM315,179.5c12.88-11.47,25.91-23.06,38.92-34.66Q405.4,99,456.85,53c7.79-7,9.8-16.44,5.66-25-4.25-8.8-13.66-14.12-23.33-11.62a28.81,28.81,0,0,0-13.31,8.16c-20.31,22.34-40.05,45.19-60.2,67.68-17.57,19.63-35.44,39-53.15,58.49-4.49,4.93-8.88,9.94-12.95,14.51ZM115.58,54.88H62v79.7c17.7-13.72,34.79-26.94,51.82-40.26a4.94,4.94,0,0,0,1.67-3.39C115.63,79,115.58,67.15,115.58,54.88ZM239.63,242c8-2.78,15.17-5.53,22.48-7.72,8.32-2.5,16.92-4.12,25.16-6.84,11.08-3.65,17.71-14.73,17.14-27.33-.5-11-7.7-19.69-18.82-22.67s-24.33,1.23-29.7,10.51C246.34,204.43,243.72,223.08,239.63,242Zm144-102c1.53,1.28,2.62,2.25,3.78,3.15l61.95,48.1c5.69,4.41,11.3,8.94,17.12,13.19,5,3.63,10.86,3,14.54-1.09s3.68-10-.28-14.63a32.87,32.87,0,0,0-4.83-4.36q-19.08-14.77-38.22-29.47l-38-29.24C394.25,130.49,389,135.13,383.58,140ZM121.42,358.81v18.85h112.5V358.81ZM45.5,37.92h83.09V18.23H45.5Zm86.09,417.37v-19.7H112.07v19.7ZM223,455.2H242.6V435.7H223Z" transform="translate(-0.67 0)"/><path class="cls-1" d="M423.44,319.19v57.14c0,2.35.08,4.71,0,7.05-.25,4.95-3.37,8-7.92,7.89-4.33-.11-7.37-3-7.44-7.82-.15-10.41-.06-20.82-.07-31.23V319.08h-9.82V428.21c3,0,5.78-.06,8.59,0,8.31.23,14,5.53,14.39,13.73.27,5.53.27,11.09,0,16.62-.37,8.26-6.39,14-14.76,14q-33,.13-66,0c-8.55,0-14.15-5.49-14.59-14.08-.25-4.86-.13-9.74-.05-14.6.16-10.34,5.61-15.64,16.06-15.73h7V318.63c-9.55,0-18.92,0-28.28,0-9.07,0-12.23-4.61-8.85-13,10.58-26.1,21.28-52.14,31.72-78.3,2.06-5.14,5.23-7.23,10.68-7.15q19.13.3,38.28,0c5.54-.09,8.57,2.32,10.58,7.34,10.33,25.83,20.87,51.58,31.31,77.38,3.71,9.16,1.19,13.08-8.73,13.76A16.36,16.36,0,0,0,423.44,319.19Zm-6.95-16.38c-8.91-22-17.43-43.1-26.18-64.13-.55-1.32-2.88-2.65-4.41-2.69-8.56-.26-17.13,0-25.69-.19-2.64-.05-3.75,1-4.7,3.33-8.11,20.23-16.36,40.39-24.55,60.58a31.09,31.09,0,0,0-.9,3.1Zm-51.19,16.4V427.88h16.52V319.21Zm-23.59,137.6h63.42v-12.7H341.71Z" transform="translate(-0.67 0)"/><path class="cls-1" d="M187.53,205.16c-2.85-2.28-6-3.53-6.86-5.7-5.81-14-15.61-23.55-29.58-29.54-6.1-2.62-6-10.9.2-13.6,13.73-6,23.28-15.42,29.25-29.2,2.8-6.44,11.06-6.44,13.84,0,6,13.79,15.55,23.16,29.24,29.2,6.45,2.84,6.32,10.95-.22,13.83-13.53,6-23.27,15.08-28.9,28.84C193.55,201.33,190.37,202.74,187.53,205.16Zm.23-58.77c-2.6,4.22-4,7.8-6.58,10.32s-6.26,4.16-10.27,6.68a28.66,28.66,0,0,1,16.71,16c2.79-8.16,8.77-12.67,17-16.38C195.88,159.93,190.79,154.73,187.76,146.39Z" transform="translate(-0.67 0)"/><path class="cls-1" d="M175.25,329.64c-3.13-2.55-6.29-3.83-7.15-6-4.95-12.6-14-20.59-26.1-26.13-6.61-3-6.36-11.35.46-14.06,12.27-4.86,20.32-13,25.27-25.24,2.87-7.05,10.48-6.86,14.51-.34a5.76,5.76,0,0,1,.46.89c4.63,11.6,12.69,19.45,24.29,24.42,7.61,3.26,7.32,10.6.17,15a5.43,5.43,0,0,1-.87.5c-11.1,4.54-18.46,12.69-23.56,23.4C181.4,324.88,178.19,326.76,175.25,329.64Zm.06-50.1-11.55,11.38,11.58,11.39,11.46-11.37Z" transform="translate(-0.67 0)"/></svg>