<svg id="Layer_1" data-name="Layer 1" xmlns="http://www.w3.org/2000/svg" viewBox="0 0 497.18 494.69"><defs><style>.cls-1{fill:#fff;}</style></defs><title>landscape-design</title><path class="cls-1" d="M3.48,40.34c2.08-4.12,5.53-5.46,10-5.27,4.64.2,9.3,0,14.44,0,0-3.29-.06-6,0-8.71C28.24,12.26,37,3.33,51,3.32q144.91-.1,289.82,0a21.16,21.16,0,0,1,3.38.2c3.76.59,6.21,3.25,5.76,6.6-.34,2.51-2.6,5.32-4.8,6.86-1.72,1.19-4.67.82-7.07.82q-141,0-282.07,0c-12.6,0-13.63,1.06-13.63,13.9q0,44.12,0,88.21c0,8.73,2.16,10.9,10.83,10.91h95.48c7.77,0,11.38,2.34,11.47,7.37.08,5.18-3.69,7.64-11.71,7.64H77.11c-.12,1.75-.28,3-.28,4.25,0,34.41,0,68.82,0,103.23,0,7,2.24,12.68,8.74,16A15.47,15.47,0,0,0,108.21,256c.36-11.14,0-22.29.17-33.44.18-14,7.63-24.89,19.47-28.9,18.8-6.36,37.52,6.73,38.39,26.95.24,5.65-.05,11.31.12,17,.29,9.61,7.46,16.52,16.78,16.38a16.07,16.07,0,0,0,16.18-16.44c.13-29.72.05-59.45,0-89.18,0-.61-.14-1.23-.29-2.45-4.86,0-9.65,0-14.44,0-6.5-.07-9.73-2.61-9.71-7.56s3.18-7.43,9.8-7.44q69.06,0,138.12,0h112c10.11,0,11.69-1.61,11.69-11.89q0-45.32,0-90.63c0-8.41-2.09-10.48-10.64-10.49q-29.8,0-59.61,0a27.62,27.62,0,0,1-4.82-.26c-4.32-.77-6.84-3.77-6.37-7.7.49-4.13,3-6.41,7.14-6.45,11.31-.11,22.61-.08,33.92-.08,10.5,0,21-.08,31.51,0,14.67.13,23.33,8.93,23.39,23.7.05,13.07,0,26.15,0,40,4.83,0,9.44,0,14,0,16.23.1,24.71,8.65,24.71,24.93q0,38.52,0,77.06c0,14.86-6.8,22.88-21.58,24.66-38.15,4.6-76.32,9-114.48,13.44q-48.33,5.67-96.66,11.43c-5.56.66-8,2.76-8,7.8-.14,23.43-.06,46.85,0,70.28a11.19,11.19,0,0,0,.62,2.27c6.93,0,13.84,0,20.75,0,7.43.05,9.85,2.43,9.85,9.91,0,49.76.11,99.52,0,149.28-.07,24.52-17.73,41.32-41.26,39.71-17.62-1.21-33.22-16-33.83-34.07-.82-24.52-.36-49.1-.32-73.65a7,7,0,0,1,6.85-7.39c3.64-.17,6.87,2.72,7.47,6.86a35.44,35.44,0,0,1,.13,4.84c0,22.29-.25,44.59.16,66.88.33,17.85,20.2,28.22,35.25,18.74a22.55,22.55,0,0,0,11-19.91c.11-48.31,0-96.61,0-144.91a7.41,7.41,0,0,0-.36-1.35h-46V324c0,11.63.05,23.26,0,34.89,0,5.8-2.68,9-7.14,9.16-4.61.11-7.35-3.27-7.36-9.31q0-25.2,0-50.4c0-6.92,2.39-9.29,9.29-9.36,6.59-.06,13.17,0,20.43,0v-6.15q0-31.74,0-63.49c0-15.81,6.79-23.47,22.48-25.31q82.73-9.72,165.47-19.36c14.91-1.74,29.82-3.47,44.71-5.37,6.24-.8,8.14-3.07,8.15-9.22q0-39.75,0-79.49c0-6.2-2.58-8.79-8.83-9-5-.14-9.92,0-15.38,0,0,13.27.06,26,0,38.72a37.83,37.83,0,0,1-.93,9.09,20.91,20.91,0,0,1-19.21,15.78c-2.25.16-4.52.17-6.78.17H213.91v6.05c0,28.27.06,56.54,0,84.81,0,14.4-7.66,25.69-20,30.24a31,31,0,0,1-42-27.58c-.34-5.64-.06-11.31-.15-17-.13-8.82-6-15.2-14.07-15.44s-14.61,6.24-14.77,15.29c-.2,11.47.21,23-.18,34.41-.73,21.11-21.08,34.83-40.8,27.37C70.41,279.16,63.11,270.43,62.72,258c-.69-21.62-.35-43.28-.4-64.93,0-14.37-.12-28.75.07-43.13,0-3.58-.94-5.06-4.63-4.66a51.73,51.73,0,0,1-7.26,0c-13.4-.42-21.94-8.8-22.56-22.19-.14-3,0-6.06,0-9.63-5.19,0-9.84-.13-14.49,0-4.43.16-7.91-1.15-9.95-5.31ZM27.61,98.72V49.92H18.26v48.8Z" transform="translate(-3.48 -3.25)"/><path class="cls-1" d="M95,417.4c-30.63,0-54.18-26.35-48.6-52.61,2-9.24,6.31-18.41,11.4-26.44,8.53-13.45,18.38-26.07,28-38.81,4.12-5.45,8.88-5.23,13.28,0,12.57,15,24.14,30.65,33.26,48.05,7.93,15.13,9.74,30.24.87,45.6C124.11,408.92,110.17,416.49,95,417.4ZM92.37,314.17c-11,14.08-21.13,28-28.85,43.52-8.86,17.84,1.3,35.68,15.39,42.23a32.6,32.6,0,0,0,35.56-5.86,29.67,29.67,0,0,0,7.58-34C115,343.25,103.83,329.05,92.37,314.17Z" transform="translate(-3.48 -3.25)"/><path class="cls-1" d="M500.66,260.3c-2.66,2.84-4.26,5.5-6.61,6.84a121.56,121.56,0,0,1-14.48,6.65,28.76,28.76,0,0,0-16.28,16.3c-2,4.75-4.18,9.42-6.26,14.14-1.42,3.22-3.86,5.93-7.3,5.12a12.19,12.19,0,0,1-6.8-5.18c-2.59-4.23-4.34-9-6.22-13.61a29.16,29.16,0,0,0-16.9-16.95c-4-1.59-7.92-3.61-11.92-5.33-3.68-1.57-7.16-3.21-7.1-8s3.66-6.36,7.29-7.94c4.43-1.93,8.81-4,13.23-5.94A27.32,27.32,0,0,0,436,231.65c2.17-5,4.07-10.25,6.88-14.9,1.46-2.43,4.62-5.29,7-5.3s5.55,2.84,7.05,5.26c2.62,4.19,4.33,9,6.24,13.59a29,29,0,0,0,16.59,16.63,120.12,120.12,0,0,1,14.48,6.67C496.47,254.86,498,257.43,500.66,260.3Zm-51-23.8c-4.73,11.13-12.45,18.75-24,23.85,11.61,5,19.24,12.78,23.76,23.2,3.42-4.68,6.25-9.68,10.16-13.6s8.8-6.63,13.3-9.91C459.6,252.34,458.59,251.33,449.69,236.5Z" transform="translate(-3.48 -3.25)"/><path class="cls-1" d="M354.82,428.33c-2.89-2.91-5.45-4.64-6.81-7.05a136.15,136.15,0,0,1-6.39-14.07,28.69,28.69,0,0,0-16.26-16.3c-4.63-1.88-9.1-4.12-13.67-6.13-3.32-1.45-5.87-3.45-5.83-7.46s2.72-5.92,6-7.37c5-2.21,10-4.51,15-6.72a26.57,26.57,0,0,0,14-14c2.29-5.16,4.62-10.29,6.93-15.44,1.4-3.13,3.43-5.52,7.19-5.52s5.82,2.26,7.23,5.45c2.2,5,4.51,10,6.7,15a27.34,27.34,0,0,0,14.64,14.7c5,2.16,10.24,4.06,14.9,6.87a12.74,12.74,0,0,1,5.47,7.05c.92,3.74-2.13,6-5.51,7.47-4.89,2.09-9.69,4.38-14.57,6.49a27.56,27.56,0,0,0-15,15,161.68,161.68,0,0,1-7,15.37C360.49,424,357.76,425.61,354.82,428.33Zm24.44-51c-11.74-4.79-19.21-12.83-24.38-24-4.83,11.59-12.65,19.1-24.09,24.13,11.56,4.92,19.19,12.76,24.3,24.15C360,389.87,368,382.43,379.26,377.31Z" transform="translate(-3.48 -3.25)"/></svg>