<svg id="Layer_1" data-name="Layer 1" xmlns="http://www.w3.org/2000/svg" viewBox="0 0 497.05 497.21"><defs><style>.cls-1{fill:#fff;}</style></defs><title>real-estate</title><path class="cls-1" d="M498.53,491c-3,5.42-7.72,6.88-13.76,6.88q-234.69-.16-469.4-.09c-1.46,0-2.92.07-4.37-.06-5.62-.54-9.6-4.65-9.53-9.76s4.09-9.15,9.77-9.53c3-.2,6.06,0,9.58,0v-6.16q0-84.22,0-168.44c0-10.85,3-13.8,13.88-13.8H220.61c10.86,0,13.81,3,13.82,13.87V478h49.18V458.89H263.66c-3.72,0-7.45,0-11.17,0-7.41-.08-12.08-3.87-12.06-9.76s4.66-9.62,12.12-9.65c10.19,0,20.37,0,31,0V404.51H257.56c-2.26,0-4.53.1-6.79,0-6.22-.37-10.56-4.61-10.34-10s4.42-9.24,10.45-9.34c9.05-.15,18.12-.05,27.18-.05h5.55V350.14h-5c-9.06,0-18.12.09-27.18,0-6.64-.09-11.1-4.19-11-9.78s4.53-9.52,11.2-9.58c10.5-.08,21,0,31.9,0v-35H257c-2.11,0-4.22.1-6.31,0-6-.37-10.19-4.29-10.29-9.56-.1-5.43,4.27-9.68,10.5-9.78,9.06-.15,18.12,0,27.18-.05h5.51V241.39h-7.93c-7.6,0-15.21,0-22.81,0-7.78,0-12.56-3.84-12.45-9.86s4.71-9.52,12.22-9.54c10.18,0,20.36,0,30.9,0V187H256.49c-2.1,0-4.22.11-6.31-.07-5.7-.5-9.69-4.49-9.75-9.58-.06-5.26,4.16-9.57,10.06-9.7,9.22-.2,18.45-.07,27.67-.07h5.48V129.14H151.86v5.21q0,40.53,0,81.06a39.18,39.18,0,0,1-.12,4.85c-.68,5.39-4.69,9.14-9.62,9.15-5.15,0-9.36-4-9.58-9.63-.26-6.79-.09-13.59-.09-20.39q0-38.58,0-77.18c0-9.54,3.3-12.83,12.85-12.83q44.67,0,89.32,0h5.7v-5.66c0-29.77.11-59.55-.09-89.32,0-6,1.43-10.71,6.82-13.77h5.82c.1.14.16.33.28.4Q333.84,43.8,414.57,86.5c5.86,3.08,8.44,7,8.4,13.75-.22,38.65-.11,77.31-.11,116V222h42.53c10.8,0,13.72,3,13.72,13.92V478.24c7.53.12,15.3-1.25,19.42,6.89ZM259.84,108.75c.72.29,1,.52,1.29.52,9.21,0,18.43.09,27.65.1,11.84,0,14.55,2.73,14.55,14.61V478h32.08v-6.17q0-117.93,0-235.85c0-11.16,2.84-14,14.16-14h53.57c.15-1.21.27-1.68.27-2.16,0-38,.07-76-.12-114,0-1.67-1.8-4-3.39-4.89q-68-36.27-136.13-72.27c-1.17-.61-2.43-1.07-3.93-1.72ZM459.45,404.51H411.78c-1.29,0-2.59.06-3.88,0-6-.39-10.17-4.27-10.27-9.56-.11-5.47,4.19-9.73,10.45-9.78,15.37-.13,30.75-.05,46.12-.05h5.12V350.14c-17,0-33.69.05-50.34,0-6.94,0-11.52-4.19-11.36-9.94s4.56-9.4,11.33-9.43c13.27-.07,26.53,0,39.8,0h10.6v-35h-5.61c-14.56,0-29.12,0-43.69,0-7.78,0-12.52-3.82-12.43-9.86s4.66-9.52,12.19-9.55c9.55,0,19.1,0,28.64,0h20.94V241.75H355.22V478.06H459.36V458.89H448.41c-5.83,0-11.66.16-17.48-.06-6.37-.23-10.35-4.28-10.21-9.95.13-5.44,4.11-9.11,10.29-9.38,2.26-.1,4.52,0,6.79,0h21.65ZM40.59,309.6V477.94H214.74V309.6Z" transform="translate(-1.47 -0.62)"/><path class="cls-1" d="M151.78,258.59a9.72,9.72,0,0,1-9.84,9.32,9.5,9.5,0,1,1,9.84-9.32Z" transform="translate(-1.47 -0.62)"/><path class="cls-1" d="M345.09,187.47c0,3.22.17,6.46,0,9.67-.38,5.76-4.23,9.56-9.48,9.64-5.46.09-9.57-3.79-9.8-9.79-.24-6.44-.22-12.91,0-19.35.21-5.94,4.4-10,9.71-10s9.28,4.15,9.59,10.13C345.23,181,345.1,184.24,345.09,187.47Z" transform="translate(-1.47 -0.62)"/><path class="cls-1" d="M383.93,187.29c0,3.22.16,6.46,0,9.67-.36,6-4.33,9.89-9.79,9.82-5.26-.07-9.25-3.85-9.48-9.62-.26-6.59-.26-13.22,0-19.82.23-5.67,4.37-9.61,9.51-9.67,5.32-.06,9.42,4,9.75,10C384.08,180.83,383.93,184.06,383.93,187.29Z" transform="translate(-1.47 -0.62)"/><path class="cls-1" d="M345.07,129.07c0,3.07.19,6.15,0,9.2-.44,5.7-4.49,9.54-9.7,9.49s-9.27-3.88-9.54-9.64c-.27-6-.25-12,0-17.92.24-5.67,4.34-9.67,9.46-9.78s9.45,4,9.82,9.93c.18,2.9,0,5.81,0,8.72Z" transform="translate(-1.47 -0.62)"/><path class="cls-1" d="M383.91,129c0,3.07.19,6.15,0,9.2-.42,5.74-4.39,9.58-9.61,9.59s-9.35-3.82-9.62-9.55c-.28-6.12-.29-12.28,0-18.4a9.62,9.62,0,0,1,9.8-9.39c4.94.14,8.92,4,9.37,9.36.25,3,.05,6.13.05,9.19Z" transform="translate(-1.47 -0.62)"/><path class="cls-1" d="M395.73,449.59a9.72,9.72,0,0,1-10,9.19,9.63,9.63,0,0,1,.88-19.23A9.64,9.64,0,0,1,395.73,449.59Z" transform="translate(-1.47 -0.62)"/><path class="cls-1" d="M116.12,356c0,5.66.09,11.33,0,17-.13,6.85-3.55,10.76-10.32,10.92q-17.22.42-34.46,0c-6.35-.16-9.93-3.8-10.07-10.14q-.41-17.47,0-34.95c.16-6.34,3.9-9.82,10.25-9.92q17-.28,34,0c6.81.1,10.42,3.84,10.59,10.62C116.23,345,116.12,350.5,116.12,356Zm-35.27-7.47v15.74h15.6V348.53Z" transform="translate(-1.47 -0.62)"/><path class="cls-1" d="M116.13,431.25c0,5.5.08,11,0,16.5-.14,7.31-3.78,11-11.13,11.1q-16.26.18-32.53,0c-7.22-.07-11.07-3.49-11.23-10.5q-.4-17,0-34c.15-7,4-10.54,11.14-10.65q16.26-.23,32.52,0c7.58.1,11.15,3.87,11.25,11.51C116.19,420.57,116.13,425.91,116.13,431.25Zm-19.7-7.81H80.85v15.71H96.43Z" transform="translate(-1.47 -0.62)"/><path class="cls-1" d="M140.21,430.76c0-5.34-.09-10.68,0-16,.15-7,3.81-10.88,10.82-11q16.75-.28,33.5,0c6.77.13,10.56,3.8,10.72,10.62.26,11.32.28,22.66,0,34-.18,7-4.14,10.44-11.3,10.5q-16.26.16-32.52,0c-7.34-.08-11-3.84-11.22-11.1,0-.16,0-.32,0-.48Zm19.64,8.32H175.6V423.4H159.85Z" transform="translate(-1.47 -0.62)"/><path class="cls-1" d="M167.79,328.82c5.34,0,10.68-.06,16,0,7.43.11,11.32,3.56,11.48,10.84q.38,16.74,0,33.49c-.16,7-4,10.67-11.07,10.79q-16.5.29-33,0c-7.27-.13-10.91-4-11-11.35q-.13-16.28,0-32.53c.07-7.35,3.76-11,11-11.26h16.5Zm7.77,35.5V348.57H159.91v15.75Z" transform="translate(-1.47 -0.62)"/></svg>